<svg width="209.99999999999997" height="209.99999999999997" xmlns="http://www.w3.org/2000/svg" version="1.1">
 <title>3DO Logo</title>

 <g>
  <title>Layer 1</title>
  <rect id="svg_1" height="82.35" width="200" y="273.909" x="5"/>
  <path id="svg_2" fill="#888888" d="m69.287,220.202c0,-3.461 15.986,-6.266 35.713,-6.266s35.714,2.805 35.714,6.266c0,3.462 -15.986,6.266 -35.714,6.266s-35.713,-2.804 -35.713,-6.266z"/>
  <path id="svg_3" fill="#FFFFFF" d="m38.406,311.153l0,0.133c6.014,0.112 10.455,1.308 13.321,3.588c2.867,2.279 4.301,5.035 4.301,8.266c0,3.608 -1.629,6.587 -4.895,8.931c-3.259,2.35 -7.602,3.524 -13.015,3.524c-4.678,0 -8.293,-0.938 -10.853,-2.805c-2.559,-1.867 -3.839,-3.993 -3.839,-6.385c0,-1.587 0.573,-2.874 1.72,-3.847c1.147,-0.972 2.524,-1.454 4.126,-1.454c1.503,0 2.797,0.427 3.867,1.272c1.077,0.854 1.608,1.979 1.608,3.371c0,1.86 -1.245,3.419 -3.741,4.678c-0.489,0.245 -0.741,0.524 -0.741,0.833c0,0.573 0.699,1.076 2.105,1.511c1.399,0.433 2.825,0.643 4.293,0.643c4.805,0 7.21,-3.531 7.21,-10.594c0,-6.993 -2.888,-10.489 -8.657,-10.489l-4.791,0.195c-0.965,0 -1.455,-0.356 -1.455,-1.069c0,-0.819 0.511,-1.231 1.525,-1.231l3.489,0.133c3.56,0 5.944,-0.79 7.154,-2.378c1.216,-1.58 1.818,-3.832 1.818,-6.755c0,-3.007 -0.455,-5.224 -1.371,-6.637c-0.916,-1.42 -2.49,-2.125 -4.713,-2.125c-1.209,0 -2.349,0.202 -3.413,0.614c-1.063,0.406 -1.601,0.805 -1.601,1.204c0,0.369 0.35,0.755 1.049,1.153c1.832,1.168 2.755,2.434 2.755,3.797c0,1.343 -0.51,2.405 -1.539,3.203c-1.028,0.79 -2.182,1.188 -3.469,1.188c-1.482,0 -2.804,-0.455 -3.965,-1.356c-1.161,-0.909 -1.749,-2.028 -1.749,-3.378c0,-2.293 1.294,-4.279 3.881,-5.951c2.587,-1.679 5.902,-2.517 9.958,-2.517c4.483,0 8.259,0.95 11.335,2.846c3.084,1.895 4.623,4.321 4.623,7.294c0.004,5.846 -5.444,9.378 -16.331,10.594z"/>
  <path id="svg_4" fill="#FFFFFF" d="m92.692,292.392l0,40.209l3.937,0c6.021,0 9.657,-1.58 10.909,-4.734c1.252,-3.16 1.875,-8.559 1.875,-16.202c0,-5.979 -0.386,-10.28 -1.154,-12.889c-0.762,-2.614 -1.93,-4.335 -3.49,-5.152c-1.56,-0.819 -3.545,-1.231 -5.944,-1.231l-6.133,0l0,-0.001zm-12.161,40.209l0,-40.209l-6.307,0l0,-2.175l25.272,0c7.308,0 13.098,2.07 17.357,6.217c4.258,4.14 6.391,9.37 6.391,15.685c0,3.272 -0.649,6.357 -1.95,9.231c-1.301,2.881 -3.301,5.503 -6,7.859c-2.7,2.357 -5.469,3.874 -8.308,4.553c-2.84,0.678 -6.322,1.015 -10.462,1.015l-22.3,0l0,-2.176l6.307,0z"/>
  <path id="svg_5" fill="#FFFFFF" d="m171.909,312.518c0,-6.825 -0.141,-11.322 -0.42,-13.489c-0.286,-2.176 -1.014,-3.924 -2.188,-5.253c-1.175,-1.328 -3.112,-1.993 -5.805,-1.993c-2.272,0 -4.083,0.539 -5.434,1.609c-1.35,1.077 -2.188,2.797 -2.524,5.168c-0.328,2.37 -0.496,7 -0.496,13.888c0,6.818 0.14,11.335 0.426,13.538c0.28,2.203 1.036,3.959 2.26,5.267c1.224,1.307 3.146,1.958 5.769,1.958c2.175,0 3.951,-0.524 5.321,-1.574c1.372,-1.056 2.231,-2.762 2.574,-5.133c0.349,-2.372 0.517,-7.035 0.517,-13.986zm-30.699,-0.189c0,-6.665 2.195,-12.119 6.602,-16.364c4.397,-4.237 9.678,-6.356 15.831,-6.356c5.714,0 10.826,1.993 15.336,5.979c4.512,3.986 6.763,9.657 6.763,17.007c0,6.889 -2.126,12.413 -6.392,16.567c-4.266,4.153 -9.476,6.23 -15.629,6.23c-6.65,0 -12.07,-2.21 -16.245,-6.615c-4.175,-4.407 -6.266,-9.889 -6.266,-16.448z"/>
  <path stroke="#ffffff" id="svg_6" fill="#ffffff" d="m74.643,167.526c0,-16.812 13.587,-30.434 30.357,-30.434c16.769,0 30.356,13.622 30.356,30.434c0,16.811 -13.588,30.434 -30.356,30.434c-16.77,0 -30.357,-13.623 -30.357,-30.434z"/>
  <path id="svg_7" fill="#ffffff" d="m76.727,88.163c-4.468,2.979 -5.657,20.286 -5.657,20.286s1.189,17.308 5.657,20.287c4.462,2.985 28.273,4.775 28.273,4.775s23.812,-1.79 28.272,-4.775c4.469,-2.979 5.658,-20.287 5.658,-20.287s-1.189,-17.308 -5.658,-20.286c-4.46,-2.987 -28.272,-4.777 -28.272,-4.777s-23.811,1.79 -28.273,4.777z"/>
  <polygon id="svg_8" fill="#ffffff" points="105,10.140999227762222 140.55999755859375,45.79202118515968 105,81.43502655625343 69.44000244140625,45.79202118515968 "/>
 </g>
</svg>