<svg id="SvgjsSvg1041" width="288" height="288" xmlns="http://www.w3.org/2000/svg" version="1.1" xmlns:xlink="http://www.w3.org/1999/xlink" xmlns:svgjs="http://svgjs.com/svgjs"><defs id="SvgjsDefs1042"></defs><g id="SvgjsG1043"><svg xmlns="http://www.w3.org/2000/svg" width="288" height="288" viewBox="0 0 48 48"><path fill="#ffffff" d="M24,14.088C11.427,14.088,1.108,23.716,0,36h48C46.892,23.716,36.573,14.088,24,14.088z M33.179,27.079c0-1.104,0.895-1.999,1.999-1.999c1.104,0,1.999,0.895,1.999,1.999c0,1.104-0.895,1.999-1.999,1.999	C34.074,29.078,33.179,28.183,33.179,27.079z M12.822,29.078c-1.104,0-1.999-0.895-1.999-1.999c0-1.104,0.895-1.999,1.999-1.999	s1.999,0.895,1.999,1.999C14.821,28.183,13.926,29.078,12.822,29.078z" class="color30dc80 svgShape"></path><path fill="#ffffff" d="M34.038 19.313c-.14 0-.281-.035-.41-.11-.393-.227-.527-.729-.301-1.122l5.197-9.008c.227-.394.729-.529 1.122-.301.393.227.527.729.301 1.122l-5.197 9.008C34.598 19.166 34.322 19.313 34.038 19.313zM13.962 19.313c-.284 0-.56-.148-.712-.411L8.054 9.894C7.827 9.501 7.962 8.999 8.354 8.772c.392-.228.895-.093 1.122.301l5.197 9.008c.227.394.092.896-.301 1.122C14.243 19.278 14.102 19.313 13.962 19.313z" class="color30dc80 svgShape"></path></svg></g></svg>