<svg width="288" height="288" xmlns="http://www.w3.org/2000/svg" version="1.1">

 <g>
  <title>Layer 1</title>
  <g y="-15.361" x="-13.37842" transform="matrix(1.93652 0 0 2.30904 -105.528 -180.432)" stroke="null" id="SvgjsG1041">
   <svg stroke="null" y="-3.68946" x="-15.76552" fill="#ffffff" id="svg_2" viewBox="0 0 853.333 640" height="288" width="288" xmlns="http://www.w3.org/2000/svg">
    <defs stroke="null" fill="#ffffff">
     <clipPath stroke="null" fill="#ffffff" clipPathUnits="userSpaceOnUse" id="svg_1">
      <path stroke="null" id="svg_3" class="color000 svgShape" fill="#ffffff" d="m0,480l640,0l0,-480l-640,0l0,480z"/>
     </clipPath>
    </defs>
    <g stroke="null" id="svg_4" class="color000 svgShape" fill="#ffffff" transform="matrix(1.33333 0 0 -1.33333 0 640)" clip-path="url(#svg_1)">
     <path stroke="null" id="svg_5" class="color000 svgShape" fill="#ffffff" d="m347.222,247.742l-2.37,0l0,-13.344l2.261,0l0,8.737l4.891,-8.737l2.445,0l0,13.344l-2.263,0l0,-8.94l-4.964,8.94zm-4.732,0l-2.44,0l0,-13.344l2.44,0l0,13.344zm-175.481,-3.11l1.679,-4.947l-3.317,0l1.638,4.947zm-2.385,-7.207l4.849,0l1.051,-3.027l2.663,0l-4.848,13.344l-2.602,0l-4.706,-13.344l2.592,0l1.001,3.027zm36.833,7.207l1.676,-4.947l-3.314,0l1.638,4.947zm-2.384,-7.207l4.849,0l1.051,-3.027l2.659,0l-4.846,13.344l-2.602,0l-4.706,-13.344l2.592,0l1.003,3.027zm124.943,-3.027l0,11.085l3.582,0l0,2.259l-9.618,0l0,-2.259l3.594,0l0,-11.085l2.442,0zm-132.85,3.47l-3.063,9.874l-2.649,0l4.329,-13.344l2.624,0l4.314,13.344l-2.593,0l-2.962,-9.874zm20.151,9.874l-2.369,0l0,-13.344l2.261,0l0,8.737l4.893,-8.737l2.44,0l0,13.344l-2.26,0l0,-8.94l-4.965,8.94zm-29.474,-9.118c-0.164,-0.597 -0.379,-1.025 -0.643,-1.286c-0.258,-0.26 -0.59,-0.445 -0.986,-0.554c-0.303,-0.087 -0.795,-0.127 -1.478,-0.127l-1.826,0l0,8.826l1.099,0c0.998,0 1.665,-0.042 2.007,-0.128c0.455,-0.108 0.836,-0.317 1.132,-0.627c0.298,-0.309 0.531,-0.739 0.695,-1.29c0.165,-0.552 0.248,-1.343 0.248,-2.372c0,-1.031 -0.083,-1.845 -0.248,-2.442m-0.613,8.863c-0.525,0.169 -1.294,0.255 -2.3,0.255l-4.461,0l0,-13.344l4.593,0c0.9,0 1.623,0.092 2.16,0.281c0.721,0.256 1.295,0.611 1.716,1.064c0.563,0.601 0.993,1.388 1.298,2.36c0.245,0.793 0.369,1.74 0.369,2.839c0,1.25 -0.133,2.301 -0.397,3.155c-0.264,0.851 -0.649,1.572 -1.154,2.161c-0.504,0.588 -1.115,0.999 -1.824,1.229m181.632,-8.848l-2.188,9.103l-3.662,0l0,-13.344l2.26,0l0.007,10.504l2.392,-10.504l2.355,0l2.394,10.504l0.009,-10.504l2.261,0l0,13.344l-3.67,0l-2.158,-9.103zm17.462,-1.982l-6.754,0l0,3.609l6.066,0l0,2.259l-6.066,0l0,2.958l6.523,0l0,2.259l-8.965,0l0,-13.344l9.196,0l0,2.259zm-105.223,6.478l4.889,-8.737l2.446,0l0,13.344l-2.266,0l0,-8.94l-4.964,8.94l-2.367,0l0,-13.344l2.262,0l0,8.737zm29.221,2.348l0,2.259l-8.965,0l0,-13.344l9.195,0l0,2.259l-6.753,0l0,3.609l6.064,0l0,2.259l-6.064,0l0,2.958l6.523,0zm-14.125,-11.085l0,11.085l3.582,0l0,2.259l-9.617,0l0,-2.259l3.593,0l0,-11.085l2.442,0zm23.567,8.425c-0.164,-0.268 -0.392,-0.456 -0.684,-0.565c-0.292,-0.11 -1.023,-0.164 -2.194,-0.164l-1.807,0l0,3.389l1.905,0c0.99,0 1.585,-0.015 1.784,-0.045c0.397,-0.074 0.7,-0.249 0.917,-0.524c0.22,-0.277 0.329,-0.641 0.329,-1.089c0,-0.402 -0.084,-0.734 -0.25,-1.002m2.765,1.175c0,0.79 -0.176,1.491 -0.53,2.105c-0.351,0.613 -0.821,1.04 -1.406,1.28c-0.586,0.239 -1.525,0.359 -2.818,0.359l-5.14,0l0,-13.344l2.444,0l0,5.565l0.492,0c0.564,0 0.973,-0.05 1.233,-0.15c0.26,-0.1 0.504,-0.285 0.734,-0.554c0.233,-0.271 0.661,-0.92 1.291,-1.957l1.76,-2.904l2.923,0l-1.476,2.6c-0.583,1.037 -1.048,1.759 -1.392,2.165c-0.342,0.406 -0.779,0.78 -1.308,1.119c1.063,0.171 1.859,0.582 2.393,1.234c0.532,0.654 0.8,1.48 0.8,2.482m16.133,0.634l1.678,-4.947l-3.315,0l1.637,4.947zm-2.384,-7.207l4.851,0l1.051,-3.027l2.659,0l-4.848,13.344l-2.6,0l-4.704,-13.344l2.592,0l0.999,3.027zm54.521,10.317l-2.371,0l0,-13.344l2.261,0l0,8.737l4.892,-8.737l2.443,0l0,13.344l-2.259,0l0,-8.94l-4.966,8.94zm14.986,-13.344l0,11.085l3.586,0l0,2.259l-9.618,0l0,-2.259l3.595,0l0,-11.085l2.437,0zm26.75,0l0,5.598l4.458,7.746l-2.816,0l-2.791,-5.286l-2.858,5.286l-2.867,0l4.434,-7.729l0,-5.615l2.44,0zm-12.492,2.036c-0.742,0 -1.335,0.207 -1.772,0.621c-0.435,0.413 -0.727,1.06 -0.871,1.942l-2.379,-0.256c0.159,-1.493 0.65,-2.628 1.472,-3.408c0.818,-0.779 1.993,-1.168 3.523,-1.168c1.051,0 1.928,0.162 2.632,0.487c0.706,0.324 1.251,0.82 1.638,1.485c0.383,0.668 0.576,1.384 0.576,2.148c0,0.844 -0.162,1.55 -0.484,2.124c-0.32,0.573 -0.767,1.025 -1.336,1.356c-0.57,0.33 -1.453,0.65 -2.641,0.959c-1.191,0.309 -1.938,0.607 -2.247,0.891c-0.24,0.225 -0.362,0.497 -0.362,0.812c0,0.346 0.129,0.622 0.386,0.829c0.405,0.323 0.959,0.483 1.672,0.483c0.688,0 1.206,-0.15 1.549,-0.45c0.343,-0.303 0.567,-0.796 0.672,-1.483l2.443,0.117c-0.04,1.225 -0.443,2.205 -1.208,2.938c-0.771,0.735 -1.912,1.102 -3.433,1.102c-0.932,0 -1.722,-0.155 -2.381,-0.463c-0.659,-0.31 -1.164,-0.761 -1.512,-1.352c-0.349,-0.589 -0.523,-1.225 -0.523,-1.905c0,-1.055 0.37,-1.948 1.114,-2.683c0.53,-0.521 1.45,-0.961 2.759,-1.318c1.02,-0.279 1.672,-0.472 1.959,-0.582c0.417,-0.164 0.712,-0.357 0.881,-0.579c0.167,-0.221 0.252,-0.49 0.252,-0.806c0,-0.493 -0.2,-0.921 -0.601,-1.291c-0.4,-0.363 -0.993,-0.55 -1.778,-0.55m22.557,0c-0.745,0 -1.333,0.207 -1.772,0.621c-0.435,0.413 -0.729,1.06 -0.871,1.942l-2.379,-0.256c0.16,-1.493 0.651,-2.628 1.474,-3.408c0.817,-0.779 1.989,-1.168 3.522,-1.168c1.05,0 1.929,0.162 2.633,0.487c0.705,0.324 1.249,0.82 1.637,1.485c0.382,0.668 0.578,1.384 0.578,2.148c0,0.844 -0.165,1.55 -0.486,2.124c-0.323,0.573 -0.767,1.025 -1.335,1.356c-0.573,0.33 -1.454,0.65 -2.641,0.959c-1.189,0.309 -1.939,0.607 -2.249,0.891c-0.238,0.225 -0.361,0.497 -0.361,0.812c0,0.346 0.128,0.622 0.388,0.829c0.402,0.323 0.957,0.483 1.669,0.483c0.688,0 1.205,-0.15 1.55,-0.45c0.343,-0.303 0.565,-0.796 0.671,-1.483l2.444,0.117c-0.042,1.225 -0.444,2.205 -1.21,2.938c-0.768,0.735 -1.913,1.102 -3.434,1.102c-0.928,0 -1.722,-0.155 -2.379,-0.463c-0.659,-0.31 -1.164,-0.761 -1.512,-1.352c-0.349,-0.589 -0.523,-1.225 -0.523,-1.905c0,-1.055 0.372,-1.948 1.114,-2.683c0.529,-0.521 1.45,-0.961 2.759,-1.318c1.019,-0.279 1.674,-0.472 1.961,-0.582c0.417,-0.164 0.71,-0.357 0.877,-0.579c0.169,-0.221 0.254,-0.49 0.254,-0.806c0,-0.493 -0.201,-0.921 -0.601,-1.291c-0.4,-0.363 -0.993,-0.55 -1.778,-0.55m12.05,-2.036l0,11.085l3.581,0l0,2.259l-9.616,0l0,-2.259l3.593,0l0,-11.085l2.442,0zm20.072,13.344l-3.665,0l0,-13.344l2.265,0l0.005,10.504l2.391,-10.504l2.353,0l2.401,10.504l0.005,-10.504l2.258,0l0,13.344l-3.668,0l-2.161,-9.103l-2.184,9.103zm-5.948,-2.259l0,2.259l-8.962,0l0,-13.344l9.196,0l0,2.259l-6.756,0l0,3.609l6.068,0l0,2.259l-6.068,0l0,2.958l6.522,0zm-210.784,-6.859c-0.165,-0.597 -0.379,-1.025 -0.64,-1.286c-0.263,-0.26 -0.591,-0.445 -0.988,-0.554c-0.302,-0.087 -0.796,-0.127 -1.476,-0.127l-1.828,0l0,8.826l1.099,0c0.997,0 1.664,-0.042 2.007,-0.128c0.458,-0.108 0.835,-0.317 1.134,-0.627c0.293,-0.309 0.527,-0.739 0.692,-1.29c0.165,-0.552 0.249,-1.343 0.249,-2.372c0,-1.031 -0.084,-1.845 -0.249,-2.442m-0.609,8.863c-0.528,0.169 -1.296,0.255 -2.302,0.255l-4.46,0l0,-13.344l4.593,0c0.901,0 1.621,0.092 2.161,0.281c0.721,0.256 1.291,0.611 1.716,1.064c0.561,0.601 0.99,1.388 1.295,2.36c0.245,0.793 0.368,1.74 0.368,2.839c0,1.25 -0.131,2.301 -0.395,3.155c-0.263,0.851 -0.647,1.572 -1.152,2.161c-0.508,0.588 -1.118,0.999 -1.824,1.229m19.119,-2.004l0,2.259l-8.963,0l0,-13.344l9.196,0l0,2.259l-6.755,0l0,3.609l6.066,0l0,2.259l-6.066,0l0,2.958l6.522,0zm-44.259,0.173c0.65,0 1.199,-0.2 1.655,-0.598c0.451,-0.4 0.751,-0.946 0.895,-1.637l2.417,0.642c-0.271,1.066 -0.686,1.885 -1.236,2.454c-0.924,0.964 -2.127,1.446 -3.608,1.446c-1.692,0 -3.059,-0.614 -4.099,-1.844c-1.042,-1.227 -1.561,-2.953 -1.561,-5.174c0,-2.099 0.519,-3.754 1.553,-4.965c1.033,-1.21 2.355,-1.815 3.96,-1.815c1.298,0 2.369,0.354 3.215,1.063c0.842,0.709 1.447,1.796 1.811,3.257l-2.37,0.826c-0.202,-0.982 -0.537,-1.7 -1.008,-2.157c-0.464,-0.457 -1.026,-0.683 -1.671,-0.683c-0.881,0 -1.6,0.356 -2.149,1.072c-0.55,0.716 -0.824,1.916 -0.824,3.603c0,1.588 0.279,2.738 0.838,3.448c0.558,0.708 1.284,1.062 2.182,1.062m16.072,-0.173l0,2.259l-8.963,0l0,-13.344l9.195,0l0,2.259l-6.751,0l0,3.609l6.064,0l0,2.259l-6.064,0l0,2.958l6.519,0zm-22.687,-81.654l2.534,0c2.364,0 6.413,-0.487 8.079,-1.465c1.668,-0.97 2.766,-2.058 3.296,-3.262c0.532,-1.206 0.801,-3.862 0.801,-7.964l0,-16.108c-0.002,-4.861 -5.136,-7.337 -7.612,-7.874c-2.482,-0.537 -4.896,-0.806 -7.251,-0.806c-6.781,0 -12.635,1.764 -17.566,5.294c-4.929,3.533 -8.501,9.056 -10.713,16.582c-2.212,7.519 -3.314,16.267 -3.314,26.245c0,8.238 1.011,16.272 3.034,24.099c2.024,7.83 5.47,13.933 10.336,18.307c4.864,4.373 10.959,6.562 18.286,6.562c7.665,0 12.144,-1.94 17.789,-7.802c5.767,-5.991 11.299,-12.796 14.531,-22.792l4.716,0l0,36.693l-2.682,0c-0.968,-2.939 -2.025,-4.934 -3.18,-5.989c-1.159,-1.058 -2.413,-1.584 -3.759,-1.584c-0.868,0 -3.68,0.955 -8.423,2.865c-4.746,1.913 -8.18,3.074 -10.299,3.483c-3.903,0.814 -6.935,1.225 -11.799,1.225c-15.709,0 -28.744,-5.398 -39.105,-16.194c-10.361,-10.8 -15.538,-24.027 -15.538,-39.686c0,-8.748 1.684,-16.655 5.057,-23.715c2.651,-5.474 6.327,-10.399 11.023,-14.776c4.699,-4.374 10.121,-7.907 16.265,-10.593c6.144,-2.682 13.869,-4.026 23.169,-4.026c7.278,0 14.299,0.752 21.069,2.255c6.773,1.508 13.288,3.74 19.559,6.696l0,21.639c0,3.794 0.213,6.18 0.647,7.151c0.769,1.847 1.862,3.165 3.283,3.962c1.418,0.798 5.288,1.318 8.898,1.578l0,3.543l-51.131,0l0,-3.543zm130.675,-28.118c-5.828,-4.464 -13.584,-6.692 -23.252,-6.692l-5.514,0c-2.954,0 -5.088,0.403 -6.414,1.215c-1.321,0.813 -2.228,1.852 -2.709,3.121c-0.483,1.268 -0.727,4.742 -0.727,10.423l0,29.07c4.968,0 10.79,-0.646 13.4,-1.946c2.607,-1.293 4.899,-3.823 6.866,-7.584c1.976,-3.761 3.268,-7.913 3.882,-13.804l4.193,0l0,53.501l-4.193,0c-0.819,-8.038 -2.712,-13.433 -5.684,-17.551c-2.967,-4.119 -7.756,-6.178 -14.357,-6.178l-4.107,0l0,35.884c-0.035,6.237 5.526,5.514 5.526,5.514l6.496,0c7.857,0 13.209,-0.459 16.066,-1.375c4.895,-1.522 8.681,-3.911 11.361,-7.157c2.68,-3.253 4.754,-8.607 6.235,-16.071l3.515,0l0,30.556l-87.376,0l0,-4.186l2.757,0c3.357,0 6.007,-0.71 7.937,-2.128c1.376,-0.965 2.319,-2.339 2.826,-4.114c0.255,-1.061 0.384,-3.93 0.384,-8.598l0,-64.65c0,-5.175 -0.279,-8.371 -0.841,-9.591c-0.713,-1.723 -1.732,-2.942 -3.053,-3.651c-1.835,-1.068 -4.252,-1.598 -7.253,-1.598l-2.757,0l0,-4.863l88.892,0l5.341,32.871l-4.879,0c-2.546,-9.151 -6.734,-15.957 -12.561,-20.418m100.194,9.812c-2.431,-7.2 -5.833,-12.441 -10.202,-15.717c-3.425,-2.565 -7.697,-3.844 -12.814,-3.844c-7.599,0 -13.506,2.973 -17.73,8.918c-6.056,8.505 -9.085,21.646 -9.085,39.429c0,14.962 1.96,26.438 5.884,34.433c4.815,9.736 11.842,14.604 21.08,14.604c5.015,0 9.45,-1.411 13.297,-4.229c3.848,-2.817 7.013,-7.648 9.497,-14.485c2.482,-6.844 3.724,-17.155 3.724,-30.938c0,-11.583 -1.215,-20.974 -3.651,-28.171m-23.76,82.746c-14.894,0.615 -27.447,-4.241 -37.649,-14.574c-10.208,-10.327 -15.306,-23.235 -15.306,-38.715c0,-13.792 3.92,-25.712 11.771,-35.756c9.927,-12.714 23.979,-19.071 42.154,-19.071c18.121,0 32.15,6.665 42.081,19.995c7.496,10.042 11.245,21.681 11.245,34.91c0,15.48 -5.03,28.374 -15.082,38.679c-10.057,10.304 -23.126,15.147 -39.214,14.532m-20.187,111.452c4.815,9.735 11.842,14.603 21.08,14.603c5.015,0 9.45,-1.409 13.297,-4.228c3.848,-2.818 7.013,-7.649 9.497,-14.486c2.482,-6.844 3.724,-17.155 3.724,-30.936c0,-11.583 -1.215,-20.975 -3.651,-28.171c-2.431,-7.201 -5.833,-12.441 -10.202,-15.719c-3.425,-2.563 -7.697,-3.843 -12.814,-3.843c-7.599,0 -13.506,2.973 -17.73,8.918c-6.056,8.505 -9.085,21.646 -9.085,39.429c0,14.962 1.96,26.439 5.884,34.433m21.157,-88.59c18.121,0 32.15,6.666 42.081,19.995c7.496,10.043 11.245,21.682 11.245,34.911c0,15.48 -5.03,28.372 -15.082,38.677c-10.057,10.306 -23.126,15.148 -39.214,14.534c-14.894,0.614 -27.447,-4.241 -37.649,-14.574c-10.208,-10.325 -15.306,-23.235 -15.306,-38.714c0,-13.792 3.92,-25.713 11.771,-35.757c9.927,-12.714 23.979,-19.072 42.154,-19.072m-62.447,36.202l-4.88,0c-2.545,-9.152 -6.735,-15.958 -12.565,-20.418c-5.828,-4.463 -13.58,-6.692 -23.249,-6.692l-5.514,0c-2.953,0 -5.086,0.405 -6.414,1.215c-1.322,0.813 -2.227,1.853 -2.711,3.122c-0.482,1.269 -0.726,4.742 -0.726,10.424l0,29.069c4.967,0 10.788,-0.646 13.401,-1.947c2.609,-1.292 4.901,-3.822 6.868,-7.583c1.974,-3.761 3.267,-7.913 3.882,-13.806l4.193,0l0,53.5l-4.193,0c-0.822,-8.035 -2.715,-13.431 -5.686,-17.549c-2.964,-4.119 -7.755,-6.177 -14.356,-6.177l-4.109,0l0,35.883c-0.034,6.238 5.53,5.514 5.53,5.514l6.491,0c7.859,0 13.212,-0.458 16.068,-1.374c4.898,-1.521 8.684,-3.91 11.361,-7.157c2.679,-3.252 4.756,-8.609 6.236,-16.07l3.514,0l0,30.581l-87.375,0l0,-4.213l2.755,0c3.359,0 6.006,-0.711 7.941,-2.128c1.374,-0.964 2.315,-2.338 2.822,-4.113c0.257,-1.062 0.386,-3.929 0.386,-8.597l0,-64.653c0,-5.173 -0.279,-8.371 -0.841,-9.588c-0.711,-1.723 -1.733,-2.944 -3.051,-3.652c-1.835,-1.068 -4.252,-1.598 -7.257,-1.598l-2.755,0l0,-4.864l88.89,0l5.344,32.871zm-167.798,-27.938l-2.359,0c-3.385,0 -6.391,1.039 -9.018,3.117c-2.624,2.079 -3.938,6.082 -3.938,12.013l0,62.443l67.64,-84.322l4.385,-0.005l0,85.998c0,4.889 0.406,6.308 1.213,8.32c0.807,2.012 1.935,3.464 3.376,4.356c1.442,0.891 4.271,1.616 8.478,2.177l0,4.376l-33.55,0l0,-4.376c5.532,0.101 9.477,-1.324 11.827,-4.279c1.715,-2.19 2.572,-4.36 2.572,-10.574l0,-45.039l-52.654,64.268l-32.041,0l0,-3.472c3.045,-0.101 3.153,-1.122 4.775,-1.982l8.582,-8.637l-0.012,-69.252c0,-5.475 -1.081,-9.352 -3.241,-11.632c-2.162,-2.282 -5.994,-3.447 -11.49,-3.498l0,-4.186l35.455,0l0,4.186z"/>
    </g>
   </svg>
  </g>
 </g>
</svg>